<mxfile host="app.diagrams.net" modified="2024-02-11T10:26:36.033Z" agent="Mozilla/5.0 (Windows NT 10.0; Win64; x64) AppleWebKit/537.36 (KHTML, like Gecko) Chrome/121.0.0.0 Safari/537.36" etag="sBlONy782Obmfarbkemm" version="23.1.2" type="github">
  <diagram name="Page-1" id="nb1wmjpy5g72g9-HWO_S">
    <mxGraphModel dx="4450" dy="557" grid="1" gridSize="10" guides="1" tooltips="1" connect="1" arrows="1" fold="1" page="1" pageScale="1" pageWidth="850" pageHeight="1100" math="0" shadow="0">
      <root>
        <mxCell id="0" />
        <mxCell id="1" parent="0" />
        <mxCell id="yeK2YmA_dnLpCv1wE05Q-1" style="edgeStyle=orthogonalEdgeStyle;rounded=0;orthogonalLoop=1;jettySize=auto;html=1;exitX=0.5;exitY=1;exitDx=0;exitDy=0;entryX=0.5;entryY=0;entryDx=0;entryDy=0;labelBackgroundColor=none;fontColor=default;" edge="1" parent="1" target="yeK2YmA_dnLpCv1wE05Q-3">
          <mxGeometry relative="1" as="geometry">
            <mxPoint x="425" y="110" as="sourcePoint" />
          </mxGeometry>
        </mxCell>
        <mxCell id="yeK2YmA_dnLpCv1wE05Q-2" style="edgeStyle=orthogonalEdgeStyle;rounded=0;orthogonalLoop=1;jettySize=auto;html=1;exitX=0.5;exitY=1;exitDx=0;exitDy=0;entryX=0.5;entryY=0;entryDx=0;entryDy=0;labelBackgroundColor=none;fontColor=default;" edge="1" parent="1" source="yeK2YmA_dnLpCv1wE05Q-3" target="yeK2YmA_dnLpCv1wE05Q-5">
          <mxGeometry relative="1" as="geometry" />
        </mxCell>
        <mxCell id="yeK2YmA_dnLpCv1wE05Q-3" value="&lt;font style=&quot;font-size: 16px;&quot;&gt;Enter a First Number&lt;/font&gt;" style="shape=parallelogram;perimeter=parallelogramPerimeter;whiteSpace=wrap;html=1;fixedSize=1;labelBackgroundColor=none;" vertex="1" parent="1">
          <mxGeometry x="330" y="140" width="190" height="70" as="geometry" />
        </mxCell>
        <mxCell id="yeK2YmA_dnLpCv1wE05Q-4" style="edgeStyle=orthogonalEdgeStyle;rounded=0;orthogonalLoop=1;jettySize=auto;html=1;exitX=0.5;exitY=1;exitDx=0;exitDy=0;entryX=0.5;entryY=0;entryDx=0;entryDy=0;labelBackgroundColor=none;fontColor=default;" edge="1" parent="1" source="yeK2YmA_dnLpCv1wE05Q-5" target="yeK2YmA_dnLpCv1wE05Q-7">
          <mxGeometry relative="1" as="geometry" />
        </mxCell>
        <mxCell id="yeK2YmA_dnLpCv1wE05Q-5" value="&lt;font style=&quot;font-size: 13px;&quot;&gt;Read Value Of First Number&lt;/font&gt;" style="rounded=1;whiteSpace=wrap;html=1;labelBackgroundColor=none;" vertex="1" parent="1">
          <mxGeometry x="338" y="240" width="170" height="60" as="geometry" />
        </mxCell>
        <mxCell id="yeK2YmA_dnLpCv1wE05Q-6" style="edgeStyle=orthogonalEdgeStyle;rounded=0;orthogonalLoop=1;jettySize=auto;html=1;exitX=0.5;exitY=1;exitDx=0;exitDy=0;entryX=0.5;entryY=0;entryDx=0;entryDy=0;labelBackgroundColor=none;fontColor=default;" edge="1" parent="1" source="yeK2YmA_dnLpCv1wE05Q-7" target="yeK2YmA_dnLpCv1wE05Q-9">
          <mxGeometry relative="1" as="geometry" />
        </mxCell>
        <mxCell id="yeK2YmA_dnLpCv1wE05Q-7" value="&lt;font style=&quot;font-size: 15px;&quot;&gt;Enter a Second Number&lt;/font&gt;" style="shape=parallelogram;perimeter=parallelogramPerimeter;whiteSpace=wrap;html=1;fixedSize=1;labelBackgroundColor=none;" vertex="1" parent="1">
          <mxGeometry x="328" y="330" width="190" height="70" as="geometry" />
        </mxCell>
        <mxCell id="yeK2YmA_dnLpCv1wE05Q-8" style="edgeStyle=orthogonalEdgeStyle;rounded=0;orthogonalLoop=1;jettySize=auto;html=1;exitX=0.5;exitY=1;exitDx=0;exitDy=0;entryX=0.5;entryY=0;entryDx=0;entryDy=0;labelBackgroundColor=none;fontColor=default;" edge="1" parent="1" source="yeK2YmA_dnLpCv1wE05Q-9" target="yeK2YmA_dnLpCv1wE05Q-11">
          <mxGeometry relative="1" as="geometry" />
        </mxCell>
        <mxCell id="yeK2YmA_dnLpCv1wE05Q-9" value="&lt;font style=&quot;font-size: 13px;&quot;&gt;Read Value Of Second Number&lt;/font&gt;" style="rounded=1;whiteSpace=wrap;html=1;labelBackgroundColor=none;" vertex="1" parent="1">
          <mxGeometry x="338" y="430" width="170" height="60" as="geometry" />
        </mxCell>
        <mxCell id="yeK2YmA_dnLpCv1wE05Q-10" style="edgeStyle=orthogonalEdgeStyle;rounded=0;orthogonalLoop=1;jettySize=auto;html=1;exitX=0.5;exitY=1;exitDx=0;exitDy=0;entryX=0.5;entryY=0;entryDx=0;entryDy=0;labelBackgroundColor=none;fontColor=default;" edge="1" parent="1" source="yeK2YmA_dnLpCv1wE05Q-11" target="yeK2YmA_dnLpCv1wE05Q-13">
          <mxGeometry relative="1" as="geometry" />
        </mxCell>
        <mxCell id="yeK2YmA_dnLpCv1wE05Q-11" value="&lt;font style=&quot;font-size: 16px;&quot;&gt;Enter a Third Number&lt;/font&gt;" style="shape=parallelogram;perimeter=parallelogramPerimeter;whiteSpace=wrap;html=1;fixedSize=1;labelBackgroundColor=none;" vertex="1" parent="1">
          <mxGeometry x="328" y="520" width="190" height="70" as="geometry" />
        </mxCell>
        <mxCell id="yeK2YmA_dnLpCv1wE05Q-12" value="" style="edgeStyle=orthogonalEdgeStyle;rounded=0;orthogonalLoop=1;jettySize=auto;html=1;labelBackgroundColor=none;fontColor=default;" edge="1" parent="1" source="yeK2YmA_dnLpCv1wE05Q-13" target="yeK2YmA_dnLpCv1wE05Q-15">
          <mxGeometry relative="1" as="geometry" />
        </mxCell>
        <mxCell id="yeK2YmA_dnLpCv1wE05Q-13" value="&lt;font style=&quot;font-size: 13px;&quot;&gt;Read Value Of Third Number&lt;/font&gt;" style="rounded=1;whiteSpace=wrap;html=1;labelBackgroundColor=none;" vertex="1" parent="1">
          <mxGeometry x="338" y="620" width="170" height="60" as="geometry" />
        </mxCell>
        <mxCell id="yeK2YmA_dnLpCv1wE05Q-14" style="edgeStyle=orthogonalEdgeStyle;rounded=0;orthogonalLoop=1;jettySize=auto;html=1;exitX=0.5;exitY=1;exitDx=0;exitDy=0;entryX=0.5;entryY=0;entryDx=0;entryDy=0;labelBackgroundColor=none;fontColor=default;" edge="1" parent="1" source="yeK2YmA_dnLpCv1wE05Q-15" target="yeK2YmA_dnLpCv1wE05Q-17">
          <mxGeometry relative="1" as="geometry" />
        </mxCell>
        <mxCell id="yeK2YmA_dnLpCv1wE05Q-15" value="&lt;font style=&quot;font-size: 16px;&quot;&gt;Enter a Fourth Number&lt;/font&gt;" style="shape=parallelogram;perimeter=parallelogramPerimeter;whiteSpace=wrap;html=1;fixedSize=1;labelBackgroundColor=none;" vertex="1" parent="1">
          <mxGeometry x="328" y="710" width="190" height="70" as="geometry" />
        </mxCell>
        <mxCell id="yeK2YmA_dnLpCv1wE05Q-16" style="edgeStyle=orthogonalEdgeStyle;rounded=0;orthogonalLoop=1;jettySize=auto;html=1;exitX=0.5;exitY=1;exitDx=0;exitDy=0;entryX=0.5;entryY=0;entryDx=0;entryDy=0;labelBackgroundColor=none;fontColor=default;" edge="1" parent="1" source="yeK2YmA_dnLpCv1wE05Q-17">
          <mxGeometry relative="1" as="geometry">
            <mxPoint x="423" y="900" as="targetPoint" />
          </mxGeometry>
        </mxCell>
        <mxCell id="yeK2YmA_dnLpCv1wE05Q-17" value="&lt;font style=&quot;font-size: 13px;&quot;&gt;Read Value Of Fourth Number&lt;/font&gt;" style="rounded=1;whiteSpace=wrap;html=1;labelBackgroundColor=none;" vertex="1" parent="1">
          <mxGeometry x="338" y="810" width="170" height="60" as="geometry" />
        </mxCell>
        <mxCell id="yeK2YmA_dnLpCv1wE05Q-18" style="edgeStyle=orthogonalEdgeStyle;rounded=0;orthogonalLoop=1;jettySize=auto;html=1;exitX=0;exitY=0.5;exitDx=0;exitDy=0;labelBackgroundColor=none;fontColor=default;" edge="1" parent="1" source="yeK2YmA_dnLpCv1wE05Q-22">
          <mxGeometry relative="1" as="geometry">
            <mxPoint x="70" y="1180" as="targetPoint" />
          </mxGeometry>
        </mxCell>
        <mxCell id="yeK2YmA_dnLpCv1wE05Q-19" value="&lt;font style=&quot;font-size: 24px;&quot;&gt;No&lt;/font&gt;" style="edgeLabel;html=1;align=center;verticalAlign=middle;resizable=0;points=[];labelBackgroundColor=none;" vertex="1" connectable="0" parent="yeK2YmA_dnLpCv1wE05Q-18">
          <mxGeometry x="-0.4658" y="1" relative="1" as="geometry">
            <mxPoint as="offset" />
          </mxGeometry>
        </mxCell>
        <mxCell id="yeK2YmA_dnLpCv1wE05Q-20" style="edgeStyle=orthogonalEdgeStyle;rounded=0;orthogonalLoop=1;jettySize=auto;html=1;exitX=1;exitY=0.5;exitDx=0;exitDy=0;labelBackgroundColor=none;fontColor=default;" edge="1" parent="1" source="yeK2YmA_dnLpCv1wE05Q-22">
          <mxGeometry relative="1" as="geometry">
            <mxPoint x="810" y="1180" as="targetPoint" />
          </mxGeometry>
        </mxCell>
        <mxCell id="yeK2YmA_dnLpCv1wE05Q-21" value="&lt;font style=&quot;font-size: 24px;&quot;&gt;Yes&lt;/font&gt;" style="edgeLabel;html=1;align=center;verticalAlign=middle;resizable=0;points=[];labelBackgroundColor=none;" vertex="1" connectable="0" parent="yeK2YmA_dnLpCv1wE05Q-20">
          <mxGeometry x="-0.4294" y="-2" relative="1" as="geometry">
            <mxPoint as="offset" />
          </mxGeometry>
        </mxCell>
        <mxCell id="yeK2YmA_dnLpCv1wE05Q-22" value="&lt;font style=&quot;font-size: 13px;&quot;&gt;All The Number Are Equal&lt;/font&gt;" style="rhombus;whiteSpace=wrap;html=1;labelBackgroundColor=none;" vertex="1" parent="1">
          <mxGeometry x="333" y="1090" width="180" height="140" as="geometry" />
        </mxCell>
        <mxCell id="yeK2YmA_dnLpCv1wE05Q-23" value="&lt;font style=&quot;font-size: 16px;&quot;&gt;All The Values Are Same&lt;/font&gt;" style="rounded=1;whiteSpace=wrap;html=1;labelBackgroundColor=none;" vertex="1" parent="1">
          <mxGeometry x="710" y="1180" width="195" height="80" as="geometry" />
        </mxCell>
        <mxCell id="yeK2YmA_dnLpCv1wE05Q-24" style="edgeStyle=orthogonalEdgeStyle;rounded=0;orthogonalLoop=1;jettySize=auto;html=1;exitX=1;exitY=0.5;exitDx=0;exitDy=0;labelBackgroundColor=none;fontColor=default;" edge="1" parent="1" source="yeK2YmA_dnLpCv1wE05Q-28">
          <mxGeometry relative="1" as="geometry">
            <mxPoint x="380" y="1490.800048828125" as="targetPoint" />
          </mxGeometry>
        </mxCell>
        <mxCell id="yeK2YmA_dnLpCv1wE05Q-25" value="&lt;span style=&quot;font-size: 25px;&quot;&gt;Yes&lt;/span&gt;" style="edgeLabel;html=1;align=center;verticalAlign=middle;resizable=0;points=[];labelBackgroundColor=none;" vertex="1" connectable="0" parent="yeK2YmA_dnLpCv1wE05Q-24">
          <mxGeometry x="-0.5252" y="-1" relative="1" as="geometry">
            <mxPoint as="offset" />
          </mxGeometry>
        </mxCell>
        <mxCell id="yeK2YmA_dnLpCv1wE05Q-26" style="edgeStyle=orthogonalEdgeStyle;rounded=0;orthogonalLoop=1;jettySize=auto;html=1;exitX=0;exitY=0.5;exitDx=0;exitDy=0;labelBackgroundColor=none;fontColor=default;" edge="1" parent="1" source="yeK2YmA_dnLpCv1wE05Q-28">
          <mxGeometry relative="1" as="geometry">
            <mxPoint x="-220" y="1490" as="targetPoint" />
            <Array as="points">
              <mxPoint x="-219" y="1265" />
            </Array>
          </mxGeometry>
        </mxCell>
        <mxCell id="yeK2YmA_dnLpCv1wE05Q-27" value="&lt;font style=&quot;font-size: 22px;&quot;&gt;No&lt;/font&gt;" style="edgeLabel;html=1;align=center;verticalAlign=middle;resizable=0;points=[];labelBackgroundColor=none;" vertex="1" connectable="0" parent="yeK2YmA_dnLpCv1wE05Q-26">
          <mxGeometry x="-0.5707" y="2" relative="1" as="geometry">
            <mxPoint as="offset" />
          </mxGeometry>
        </mxCell>
        <mxCell id="yeK2YmA_dnLpCv1wE05Q-28" value="&lt;font style=&quot;font-size: 11px;&quot;&gt;FirstNumber EqualTo SecondNumber?&lt;/font&gt;" style="rhombus;whiteSpace=wrap;html=1;labelBackgroundColor=none;" vertex="1" parent="1">
          <mxGeometry x="-35" y="1180" width="210" height="170" as="geometry" />
        </mxCell>
        <mxCell id="yeK2YmA_dnLpCv1wE05Q-29" value="FirstNumber And SecondNumber Is Same" style="rounded=1;whiteSpace=wrap;html=1;labelBackgroundColor=none;" vertex="1" parent="1">
          <mxGeometry x="280" y="1490" width="200" height="60" as="geometry" />
        </mxCell>
        <mxCell id="yeK2YmA_dnLpCv1wE05Q-30" style="edgeStyle=orthogonalEdgeStyle;rounded=0;orthogonalLoop=1;jettySize=auto;html=1;exitX=1;exitY=0.5;exitDx=0;exitDy=0;labelBackgroundColor=none;fontColor=default;" edge="1" parent="1" source="yeK2YmA_dnLpCv1wE05Q-34">
          <mxGeometry relative="1" as="geometry">
            <mxPoint x="80" y="1822.4000244140625" as="targetPoint" />
          </mxGeometry>
        </mxCell>
        <mxCell id="yeK2YmA_dnLpCv1wE05Q-31" value="&lt;font style=&quot;font-size: 27px;&quot;&gt;Yes&lt;/font&gt;" style="edgeLabel;html=1;align=center;verticalAlign=middle;resizable=0;points=[];labelBackgroundColor=none;" vertex="1" connectable="0" parent="yeK2YmA_dnLpCv1wE05Q-30">
          <mxGeometry x="-0.5902" relative="1" as="geometry">
            <mxPoint as="offset" />
          </mxGeometry>
        </mxCell>
        <mxCell id="yeK2YmA_dnLpCv1wE05Q-32" style="edgeStyle=orthogonalEdgeStyle;rounded=0;orthogonalLoop=1;jettySize=auto;html=1;exitX=0;exitY=0.5;exitDx=0;exitDy=0;labelBackgroundColor=none;fontColor=default;" edge="1" parent="1" source="yeK2YmA_dnLpCv1wE05Q-34">
          <mxGeometry relative="1" as="geometry">
            <mxPoint x="-520" y="1840" as="targetPoint" />
          </mxGeometry>
        </mxCell>
        <mxCell id="yeK2YmA_dnLpCv1wE05Q-33" value="&lt;span style=&quot;font-size: 21px;&quot;&gt;No&lt;/span&gt;" style="edgeLabel;html=1;align=center;verticalAlign=middle;resizable=0;points=[];labelBackgroundColor=none;" vertex="1" connectable="0" parent="yeK2YmA_dnLpCv1wE05Q-32">
          <mxGeometry x="-0.4667" y="-3" relative="1" as="geometry">
            <mxPoint as="offset" />
          </mxGeometry>
        </mxCell>
        <mxCell id="yeK2YmA_dnLpCv1wE05Q-34" value="&lt;font style=&quot;font-size: 11px;&quot;&gt;FirstNumber Equal To ThirdNumber&lt;/font&gt;" style="rhombus;whiteSpace=wrap;html=1;labelBackgroundColor=none;" vertex="1" parent="1">
          <mxGeometry x="-320" y="1490" width="200" height="160" as="geometry" />
        </mxCell>
        <mxCell id="yeK2YmA_dnLpCv1wE05Q-35" value="FirstNumber and ThirdNumber Are Same" style="rounded=1;whiteSpace=wrap;html=1;labelBackgroundColor=none;" vertex="1" parent="1">
          <mxGeometry x="-30" y="1826" width="220" height="70" as="geometry" />
        </mxCell>
        <mxCell id="yeK2YmA_dnLpCv1wE05Q-36" style="edgeStyle=orthogonalEdgeStyle;rounded=0;orthogonalLoop=1;jettySize=auto;html=1;labelBackgroundColor=none;fontColor=default;" edge="1" parent="1" source="yeK2YmA_dnLpCv1wE05Q-40">
          <mxGeometry relative="1" as="geometry">
            <mxPoint x="-220" y="2212.800048828125" as="targetPoint" />
          </mxGeometry>
        </mxCell>
        <mxCell id="yeK2YmA_dnLpCv1wE05Q-37" value="&lt;span style=&quot;font-size: 23px;&quot;&gt;Yes&lt;/span&gt;" style="edgeLabel;html=1;align=center;verticalAlign=middle;resizable=0;points=[];labelBackgroundColor=none;" vertex="1" connectable="0" parent="yeK2YmA_dnLpCv1wE05Q-36">
          <mxGeometry x="-0.5806" y="3" relative="1" as="geometry">
            <mxPoint as="offset" />
          </mxGeometry>
        </mxCell>
        <mxCell id="yeK2YmA_dnLpCv1wE05Q-38" style="edgeStyle=orthogonalEdgeStyle;rounded=0;orthogonalLoop=1;jettySize=auto;html=1;exitX=0;exitY=0.5;exitDx=0;exitDy=0;labelBackgroundColor=none;fontColor=default;" edge="1" parent="1" source="yeK2YmA_dnLpCv1wE05Q-40">
          <mxGeometry relative="1" as="geometry">
            <mxPoint x="-800" y="2220" as="targetPoint" />
          </mxGeometry>
        </mxCell>
        <mxCell id="yeK2YmA_dnLpCv1wE05Q-39" value="&lt;span style=&quot;font-size: 23px;&quot;&gt;No&lt;/span&gt;" style="edgeLabel;html=1;align=center;verticalAlign=middle;resizable=0;points=[];labelBackgroundColor=none;" vertex="1" connectable="0" parent="yeK2YmA_dnLpCv1wE05Q-38">
          <mxGeometry x="-0.6449" relative="1" as="geometry">
            <mxPoint as="offset" />
          </mxGeometry>
        </mxCell>
        <mxCell id="yeK2YmA_dnLpCv1wE05Q-40" value="SecondNumber Equal To ThirdNumber" style="rhombus;whiteSpace=wrap;html=1;labelBackgroundColor=none;" vertex="1" parent="1">
          <mxGeometry x="-615" y="1840" width="190" height="140" as="geometry" />
        </mxCell>
        <mxCell id="yeK2YmA_dnLpCv1wE05Q-41" value="secondNumber andThirdNumber are same" style="rounded=1;whiteSpace=wrap;html=1;labelBackgroundColor=none;" vertex="1" parent="1">
          <mxGeometry x="-330" y="2215" width="220" height="60" as="geometry" />
        </mxCell>
        <mxCell id="yeK2YmA_dnLpCv1wE05Q-42" style="edgeStyle=orthogonalEdgeStyle;rounded=0;orthogonalLoop=1;jettySize=auto;html=1;exitX=1;exitY=0.5;exitDx=0;exitDy=0;labelBackgroundColor=none;fontColor=default;" edge="1" parent="1" source="yeK2YmA_dnLpCv1wE05Q-46">
          <mxGeometry relative="1" as="geometry">
            <mxPoint x="-480" y="2580" as="targetPoint" />
          </mxGeometry>
        </mxCell>
        <mxCell id="yeK2YmA_dnLpCv1wE05Q-43" value="&lt;span style=&quot;font-size: 22px;&quot;&gt;Yes&lt;/span&gt;" style="edgeLabel;html=1;align=center;verticalAlign=middle;resizable=0;points=[];labelBackgroundColor=none;" vertex="1" connectable="0" parent="yeK2YmA_dnLpCv1wE05Q-42">
          <mxGeometry x="-0.5378" y="-3" relative="1" as="geometry">
            <mxPoint as="offset" />
          </mxGeometry>
        </mxCell>
        <mxCell id="yeK2YmA_dnLpCv1wE05Q-44" style="edgeStyle=orthogonalEdgeStyle;rounded=0;orthogonalLoop=1;jettySize=auto;html=1;exitX=0;exitY=0.5;exitDx=0;exitDy=0;labelBackgroundColor=none;fontColor=default;" edge="1" parent="1" source="yeK2YmA_dnLpCv1wE05Q-46">
          <mxGeometry relative="1" as="geometry">
            <mxPoint x="-1171.5999755859375" y="2610" as="targetPoint" />
          </mxGeometry>
        </mxCell>
        <mxCell id="yeK2YmA_dnLpCv1wE05Q-45" value="&lt;span style=&quot;font-size: 21px;&quot;&gt;No&lt;/span&gt;" style="edgeLabel;html=1;align=center;verticalAlign=middle;resizable=0;points=[];labelBackgroundColor=none;" vertex="1" connectable="0" parent="yeK2YmA_dnLpCv1wE05Q-44">
          <mxGeometry x="-0.4394" y="2" relative="1" as="geometry">
            <mxPoint as="offset" />
          </mxGeometry>
        </mxCell>
        <mxCell id="yeK2YmA_dnLpCv1wE05Q-46" value="ThirdNumber Equal To FourthNumber" style="rhombus;whiteSpace=wrap;html=1;labelBackgroundColor=none;" vertex="1" parent="1">
          <mxGeometry x="-895" y="2221" width="190" height="160" as="geometry" />
        </mxCell>
        <mxCell id="yeK2YmA_dnLpCv1wE05Q-47" value="ThirdNumber and FourthNumber are Same" style="rounded=1;whiteSpace=wrap;html=1;labelBackgroundColor=none;" vertex="1" parent="1">
          <mxGeometry x="-594" y="2580" width="230" height="70" as="geometry" />
        </mxCell>
        <mxCell id="yeK2YmA_dnLpCv1wE05Q-48" style="edgeStyle=orthogonalEdgeStyle;rounded=0;orthogonalLoop=1;jettySize=auto;html=1;exitX=1;exitY=0.5;exitDx=0;exitDy=0;labelBackgroundColor=none;fontColor=default;" edge="1" parent="1" source="yeK2YmA_dnLpCv1wE05Q-52">
          <mxGeometry relative="1" as="geometry">
            <mxPoint x="-850" y="2850" as="targetPoint" />
          </mxGeometry>
        </mxCell>
        <mxCell id="yeK2YmA_dnLpCv1wE05Q-49" value="&lt;span style=&quot;font-size: 29px;&quot;&gt;Yes&lt;/span&gt;" style="edgeLabel;html=1;align=center;verticalAlign=middle;resizable=0;points=[];labelBackgroundColor=none;" vertex="1" connectable="0" parent="yeK2YmA_dnLpCv1wE05Q-48">
          <mxGeometry x="-0.4823" y="-1" relative="1" as="geometry">
            <mxPoint as="offset" />
          </mxGeometry>
        </mxCell>
        <mxCell id="yeK2YmA_dnLpCv1wE05Q-50" style="edgeStyle=orthogonalEdgeStyle;rounded=0;orthogonalLoop=1;jettySize=auto;html=1;exitX=0;exitY=0.5;exitDx=0;exitDy=0;labelBackgroundColor=none;fontColor=default;" edge="1" parent="1" source="yeK2YmA_dnLpCv1wE05Q-52">
          <mxGeometry relative="1" as="geometry">
            <mxPoint x="-1510" y="2870" as="targetPoint" />
          </mxGeometry>
        </mxCell>
        <mxCell id="yeK2YmA_dnLpCv1wE05Q-51" value="&lt;span style=&quot;font-size: 21px;&quot;&gt;No&lt;/span&gt;" style="edgeLabel;html=1;align=center;verticalAlign=middle;resizable=0;points=[];labelBackgroundColor=none;" vertex="1" connectable="0" parent="yeK2YmA_dnLpCv1wE05Q-50">
          <mxGeometry x="-0.4087" y="1" relative="1" as="geometry">
            <mxPoint as="offset" />
          </mxGeometry>
        </mxCell>
        <mxCell id="yeK2YmA_dnLpCv1wE05Q-52" value="SecondNumber Equal To FourthNumber&amp;nbsp;" style="rhombus;whiteSpace=wrap;html=1;labelBackgroundColor=none;" vertex="1" parent="1">
          <mxGeometry x="-1262" y="2610" width="180" height="160" as="geometry" />
        </mxCell>
        <mxCell id="yeK2YmA_dnLpCv1wE05Q-53" value="SecondNumber and FourthNumber are same&lt;br&gt;" style="rounded=1;whiteSpace=wrap;html=1;labelBackgroundColor=none;" vertex="1" parent="1">
          <mxGeometry x="-970" y="2850" width="230" height="60" as="geometry" />
        </mxCell>
        <mxCell id="yeK2YmA_dnLpCv1wE05Q-54" style="edgeStyle=orthogonalEdgeStyle;rounded=0;orthogonalLoop=1;jettySize=auto;html=1;labelBackgroundColor=none;fontColor=default;" edge="1" parent="1" source="yeK2YmA_dnLpCv1wE05Q-58">
          <mxGeometry relative="1" as="geometry">
            <mxPoint x="-1180" y="3110" as="targetPoint" />
          </mxGeometry>
        </mxCell>
        <mxCell id="yeK2YmA_dnLpCv1wE05Q-55" value="&lt;span style=&quot;font-size: 23px;&quot;&gt;Yes&lt;/span&gt;" style="edgeLabel;html=1;align=center;verticalAlign=middle;resizable=0;points=[];labelBackgroundColor=none;" vertex="1" connectable="0" parent="yeK2YmA_dnLpCv1wE05Q-54">
          <mxGeometry x="-0.4845" y="-1" relative="1" as="geometry">
            <mxPoint as="offset" />
          </mxGeometry>
        </mxCell>
        <mxCell id="yeK2YmA_dnLpCv1wE05Q-56" style="edgeStyle=orthogonalEdgeStyle;rounded=0;orthogonalLoop=1;jettySize=auto;html=1;exitX=0;exitY=0.5;exitDx=0;exitDy=0;labelBackgroundColor=none;fontColor=default;" edge="1" parent="1" source="yeK2YmA_dnLpCv1wE05Q-58">
          <mxGeometry relative="1" as="geometry">
            <mxPoint x="-1790" y="3120" as="targetPoint" />
          </mxGeometry>
        </mxCell>
        <mxCell id="yeK2YmA_dnLpCv1wE05Q-57" value="&lt;font style=&quot;font-size: 22px;&quot;&gt;No&lt;/font&gt;" style="edgeLabel;html=1;align=center;verticalAlign=middle;resizable=0;points=[];labelBackgroundColor=none;" vertex="1" connectable="0" parent="yeK2YmA_dnLpCv1wE05Q-56">
          <mxGeometry x="-0.5728" y="1" relative="1" as="geometry">
            <mxPoint as="offset" />
          </mxGeometry>
        </mxCell>
        <mxCell id="yeK2YmA_dnLpCv1wE05Q-58" value="&lt;font style=&quot;font-size: 15px;&quot;&gt;Determine The Maximum Number&lt;/font&gt;" style="rounded=1;whiteSpace=wrap;html=1;labelBackgroundColor=none;" vertex="1" parent="1">
          <mxGeometry x="-1620" y="2870" width="240" height="60" as="geometry" />
        </mxCell>
        <mxCell id="yeK2YmA_dnLpCv1wE05Q-59" value="&lt;font style=&quot;font-size: 15px;&quot;&gt;FirstNumber Is Max&lt;/font&gt;" style="rhombus;whiteSpace=wrap;html=1;labelBackgroundColor=none;" vertex="1" parent="1">
          <mxGeometry x="-1270" y="3110" width="180" height="170" as="geometry" />
        </mxCell>
        <mxCell id="yeK2YmA_dnLpCv1wE05Q-60" style="edgeStyle=orthogonalEdgeStyle;rounded=0;orthogonalLoop=1;jettySize=auto;html=1;labelBackgroundColor=none;fontColor=default;" edge="1" parent="1" source="yeK2YmA_dnLpCv1wE05Q-64">
          <mxGeometry relative="1" as="geometry">
            <mxPoint x="-1480" y="3380" as="targetPoint" />
          </mxGeometry>
        </mxCell>
        <mxCell id="yeK2YmA_dnLpCv1wE05Q-61" value="&lt;span style=&quot;font-size: 22px;&quot;&gt;Yes&lt;/span&gt;" style="edgeLabel;html=1;align=center;verticalAlign=middle;resizable=0;points=[];labelBackgroundColor=none;" vertex="1" connectable="0" parent="yeK2YmA_dnLpCv1wE05Q-60">
          <mxGeometry x="-0.4841" y="-2" relative="1" as="geometry">
            <mxPoint as="offset" />
          </mxGeometry>
        </mxCell>
        <mxCell id="yeK2YmA_dnLpCv1wE05Q-62" style="edgeStyle=orthogonalEdgeStyle;rounded=0;orthogonalLoop=1;jettySize=auto;html=1;labelBackgroundColor=none;fontColor=default;" edge="1" parent="1" source="yeK2YmA_dnLpCv1wE05Q-64">
          <mxGeometry relative="1" as="geometry">
            <mxPoint x="-2070" y="3390" as="targetPoint" />
          </mxGeometry>
        </mxCell>
        <mxCell id="yeK2YmA_dnLpCv1wE05Q-63" value="&lt;font style=&quot;font-size: 21px;&quot;&gt;No&lt;/font&gt;" style="edgeLabel;html=1;align=center;verticalAlign=middle;resizable=0;points=[];labelBackgroundColor=none;" vertex="1" connectable="0" parent="yeK2YmA_dnLpCv1wE05Q-62">
          <mxGeometry x="-0.5916" y="-3" relative="1" as="geometry">
            <mxPoint as="offset" />
          </mxGeometry>
        </mxCell>
        <mxCell id="yeK2YmA_dnLpCv1wE05Q-64" value="SecondNumber Is Max?" style="rhombus;whiteSpace=wrap;html=1;labelBackgroundColor=none;" vertex="1" parent="1">
          <mxGeometry x="-1864" y="3120" width="150" height="130" as="geometry" />
        </mxCell>
        <mxCell id="yeK2YmA_dnLpCv1wE05Q-65" value="SecondNumber Is Max" style="rhombus;whiteSpace=wrap;html=1;labelBackgroundColor=none;" vertex="1" parent="1">
          <mxGeometry x="-1565" y="3381" width="170" height="150" as="geometry" />
        </mxCell>
        <mxCell id="yeK2YmA_dnLpCv1wE05Q-66" style="edgeStyle=orthogonalEdgeStyle;rounded=0;orthogonalLoop=1;jettySize=auto;html=1;exitX=1;exitY=0.5;exitDx=0;exitDy=0;labelBackgroundColor=none;fontColor=default;" edge="1" parent="1" source="yeK2YmA_dnLpCv1wE05Q-70">
          <mxGeometry relative="1" as="geometry">
            <mxPoint x="-1760" y="3700" as="targetPoint" />
          </mxGeometry>
        </mxCell>
        <mxCell id="yeK2YmA_dnLpCv1wE05Q-67" value="&lt;span style=&quot;font-size: 23px;&quot;&gt;Yes&lt;/span&gt;" style="edgeLabel;html=1;align=center;verticalAlign=middle;resizable=0;points=[];labelBackgroundColor=none;" vertex="1" connectable="0" parent="yeK2YmA_dnLpCv1wE05Q-66">
          <mxGeometry x="-0.5514" y="-2" relative="1" as="geometry">
            <mxPoint as="offset" />
          </mxGeometry>
        </mxCell>
        <mxCell id="yeK2YmA_dnLpCv1wE05Q-68" style="edgeStyle=orthogonalEdgeStyle;rounded=0;orthogonalLoop=1;jettySize=auto;html=1;labelBackgroundColor=none;fontColor=default;" edge="1" parent="1" source="yeK2YmA_dnLpCv1wE05Q-70">
          <mxGeometry relative="1" as="geometry">
            <mxPoint x="-2380" y="3710" as="targetPoint" />
          </mxGeometry>
        </mxCell>
        <mxCell id="yeK2YmA_dnLpCv1wE05Q-69" value="&lt;span style=&quot;font-size: 21px;&quot;&gt;No&lt;/span&gt;" style="edgeLabel;html=1;align=center;verticalAlign=middle;resizable=0;points=[];labelBackgroundColor=none;" vertex="1" connectable="0" parent="yeK2YmA_dnLpCv1wE05Q-68">
          <mxGeometry x="-0.5623" y="-1" relative="1" as="geometry">
            <mxPoint as="offset" />
          </mxGeometry>
        </mxCell>
        <mxCell id="yeK2YmA_dnLpCv1wE05Q-70" value="ThirdNumber Is Max" style="rhombus;whiteSpace=wrap;html=1;labelBackgroundColor=none;" vertex="1" parent="1">
          <mxGeometry x="-2155" y="3391" width="170" height="150" as="geometry" />
        </mxCell>
        <mxCell id="yeK2YmA_dnLpCv1wE05Q-71" value="ThirdNumber Is Max" style="rhombus;whiteSpace=wrap;html=1;labelBackgroundColor=none;" vertex="1" parent="1">
          <mxGeometry x="-1844" y="3700" width="170" height="150" as="geometry" />
        </mxCell>
        <mxCell id="yeK2YmA_dnLpCv1wE05Q-72" style="edgeStyle=orthogonalEdgeStyle;rounded=0;orthogonalLoop=1;jettySize=auto;html=1;exitX=1;exitY=0.5;exitDx=0;exitDy=0;labelBackgroundColor=none;fontColor=default;" edge="1" parent="1" source="yeK2YmA_dnLpCv1wE05Q-74">
          <mxGeometry relative="1" as="geometry">
            <mxPoint x="-2090" y="4010.941233915441" as="targetPoint" />
          </mxGeometry>
        </mxCell>
        <mxCell id="yeK2YmA_dnLpCv1wE05Q-73" value="&lt;span style=&quot;font-size: 25px;&quot;&gt;Yes&lt;/span&gt;" style="edgeLabel;html=1;align=center;verticalAlign=middle;resizable=0;points=[];labelBackgroundColor=none;" vertex="1" connectable="0" parent="yeK2YmA_dnLpCv1wE05Q-72">
          <mxGeometry x="-0.5304" y="-1" relative="1" as="geometry">
            <mxPoint as="offset" />
          </mxGeometry>
        </mxCell>
        <mxCell id="yeK2YmA_dnLpCv1wE05Q-83" style="edgeStyle=orthogonalEdgeStyle;rounded=0;orthogonalLoop=1;jettySize=auto;html=1;" edge="1" parent="1" source="yeK2YmA_dnLpCv1wE05Q-74">
          <mxGeometry relative="1" as="geometry">
            <mxPoint x="-2690" y="4040" as="targetPoint" />
          </mxGeometry>
        </mxCell>
        <mxCell id="yeK2YmA_dnLpCv1wE05Q-84" value="&lt;font style=&quot;font-size: 21px;&quot;&gt;No&lt;/font&gt;" style="edgeLabel;html=1;align=center;verticalAlign=middle;resizable=0;points=[];" vertex="1" connectable="0" parent="yeK2YmA_dnLpCv1wE05Q-83">
          <mxGeometry x="-0.5386" y="2" relative="1" as="geometry">
            <mxPoint as="offset" />
          </mxGeometry>
        </mxCell>
        <mxCell id="yeK2YmA_dnLpCv1wE05Q-74" value="FourthNumber Is Max" style="rhombus;whiteSpace=wrap;html=1;labelBackgroundColor=none;" vertex="1" parent="1">
          <mxGeometry x="-2465" y="3711" width="170" height="150" as="geometry" />
        </mxCell>
        <mxCell id="yeK2YmA_dnLpCv1wE05Q-76" value="FourthNumber Is Max" style="rhombus;whiteSpace=wrap;html=1;labelBackgroundColor=none;" vertex="1" parent="1">
          <mxGeometry x="-2174" y="4010" width="170" height="150" as="geometry" />
        </mxCell>
        <mxCell id="yeK2YmA_dnLpCv1wE05Q-80" style="edgeStyle=orthogonalEdgeStyle;rounded=0;orthogonalLoop=1;jettySize=auto;html=1;exitX=0.5;exitY=1;exitDx=0;exitDy=0;" edge="1" parent="1" source="yeK2YmA_dnLpCv1wE05Q-78" target="yeK2YmA_dnLpCv1wE05Q-79">
          <mxGeometry relative="1" as="geometry" />
        </mxCell>
        <mxCell id="yeK2YmA_dnLpCv1wE05Q-78" value="&lt;font style=&quot;font-size: 16px;&quot;&gt;Enter a Fourth Number&lt;/font&gt;" style="shape=parallelogram;perimeter=parallelogramPerimeter;whiteSpace=wrap;html=1;fixedSize=1;labelBackgroundColor=none;" vertex="1" parent="1">
          <mxGeometry x="328" y="901" width="190" height="70" as="geometry" />
        </mxCell>
        <mxCell id="yeK2YmA_dnLpCv1wE05Q-81" style="edgeStyle=orthogonalEdgeStyle;rounded=0;orthogonalLoop=1;jettySize=auto;html=1;exitX=0.5;exitY=1;exitDx=0;exitDy=0;" edge="1" parent="1" source="yeK2YmA_dnLpCv1wE05Q-79" target="yeK2YmA_dnLpCv1wE05Q-22">
          <mxGeometry relative="1" as="geometry" />
        </mxCell>
        <mxCell id="yeK2YmA_dnLpCv1wE05Q-79" value="&lt;font style=&quot;font-size: 13px;&quot;&gt;Read Value Of Fourth Number&lt;/font&gt;" style="rounded=1;whiteSpace=wrap;html=1;labelBackgroundColor=none;" vertex="1" parent="1">
          <mxGeometry x="338" y="1010" width="170" height="60" as="geometry" />
        </mxCell>
        <mxCell id="yeK2YmA_dnLpCv1wE05Q-82" value="&lt;font style=&quot;font-size: 29px;&quot;&gt;Start&lt;/font&gt;" style="ellipse;whiteSpace=wrap;html=1;" vertex="1" parent="1">
          <mxGeometry x="363" y="30" width="120" height="80" as="geometry" />
        </mxCell>
        <mxCell id="yeK2YmA_dnLpCv1wE05Q-86" style="edgeStyle=orthogonalEdgeStyle;rounded=0;orthogonalLoop=1;jettySize=auto;html=1;exitX=1;exitY=0.5;exitDx=0;exitDy=0;" edge="1" parent="1" source="yeK2YmA_dnLpCv1wE05Q-85">
          <mxGeometry relative="1" as="geometry">
            <mxPoint x="-2390" y="4310" as="targetPoint" />
          </mxGeometry>
        </mxCell>
        <mxCell id="yeK2YmA_dnLpCv1wE05Q-87" value="&lt;span style=&quot;font-size: 24px;&quot;&gt;Yes&lt;br&gt;&lt;/span&gt;" style="edgeLabel;html=1;align=center;verticalAlign=middle;resizable=0;points=[];" vertex="1" connectable="0" parent="yeK2YmA_dnLpCv1wE05Q-86">
          <mxGeometry x="-0.4309" y="-4" relative="1" as="geometry">
            <mxPoint as="offset" />
          </mxGeometry>
        </mxCell>
        <mxCell id="yeK2YmA_dnLpCv1wE05Q-85" value="FifthNumber Is Max" style="rhombus;whiteSpace=wrap;html=1;labelBackgroundColor=none;" vertex="1" parent="1">
          <mxGeometry x="-2775" y="4040" width="170" height="150" as="geometry" />
        </mxCell>
        <mxCell id="yeK2YmA_dnLpCv1wE05Q-90" style="edgeStyle=orthogonalEdgeStyle;rounded=0;orthogonalLoop=1;jettySize=auto;html=1;exitX=1;exitY=0.5;exitDx=0;exitDy=0;entryX=0.5;entryY=0;entryDx=0;entryDy=0;" edge="1" parent="1" source="yeK2YmA_dnLpCv1wE05Q-88" target="yeK2YmA_dnLpCv1wE05Q-89">
          <mxGeometry relative="1" as="geometry" />
        </mxCell>
        <mxCell id="yeK2YmA_dnLpCv1wE05Q-88" value="FifthNumber Is Max" style="rhombus;whiteSpace=wrap;html=1;" vertex="1" parent="1">
          <mxGeometry x="-2460" y="4310" width="140" height="110" as="geometry" />
        </mxCell>
        <mxCell id="yeK2YmA_dnLpCv1wE05Q-89" value="&lt;font style=&quot;font-size: 23px;&quot;&gt;End&lt;/font&gt;" style="ellipse;whiteSpace=wrap;html=1;" vertex="1" parent="1">
          <mxGeometry x="-2060" y="4420" width="120" height="80" as="geometry" />
        </mxCell>
      </root>
    </mxGraphModel>
  </diagram>
</mxfile>
